<?xml version="1.0" encoding="utf-8"?>
<!-- Generator: Adobe Illustrator 21.0.2, SVG Export Plug-In . SVG Version: 6.00 Build 0)  -->
<svg version="1.1" id="Layer_1" xmlns="http://www.w3.org/2000/svg" xmlns:xlink="http://www.w3.org/1999/xlink" x="0px" y="0px"
	 viewBox="0 0 5.3 7.2" style="enable-background:new 0 0 5.3 7.2;" xml:space="preserve">
<style type="text/css">
	.st0{fill:#2B2A29;}
</style>
<g id="Слой_x0020_1">
	<path class="st0" d="M2.7,1.8c0.5,0,0.9,0.4,0.9,0.9c0,0.5-0.4,0.9-0.9,0.9S1.8,3.2,1.8,2.7C1.8,2.2,2.2,1.8,2.7,1.8z M4.8,4.3
		L4.8,4.3c0.3-0.4,0.5-1,0.5-1.6C5.3,1.2,4.1,0,2.7,0S0,1.2,0,2.7c0,1.5,1.2,2.7,2.7,2.7v1.8L4.8,4.3z M2.9,4.4H2.7
		c-1,0-1.7-0.8-1.7-1.7C0.9,1.7,1.7,1,2.7,1s1.7,0.8,1.7,1.7C4.4,3.5,3.7,4.3,2.9,4.4z"/>
</g>
</svg>
