<?xml version="1.0" encoding="UTF-8"?>
<!DOCTYPE svg PUBLIC "-//W3C//DTD SVG 1.1//EN" "http://www.w3.org/Graphics/SVG/1.1/DTD/svg11.dtd">
<!-- Creator: CorelDRAW X6 -->
<svg xmlns="http://www.w3.org/2000/svg" xml:space="preserve" width="43px" height="43px" version="1.1" style="shape-rendering:geometricPrecision; text-rendering:geometricPrecision; image-rendering:optimizeQuality; fill-rule:evenodd; clip-rule:evenodd"
viewBox="0 0 423 423"
 xmlns:xlink="http://www.w3.org/1999/xlink">
 <defs>
  <style type="text/css">
   <![CDATA[
    .fil0 {fill:#EBECEC}
   ]]>
  </style>
 </defs>
 <g id="Слой_x0020_1">
  <metadata id="CorelCorpID_0Corel-Layer"/>
  <path class="fil0" d="M212 8c112,0 203,91 203,204 0,112 -91,203 -203,203 -113,0 -204,-91 -204,-203 0,-113 91,-204 204,-204zm0 17c103,0 186,84 186,187 0,103 -83,186 -186,186 -103,0 -187,-83 -187,-186 0,-103 84,-187 187,-187z"/>
  <path class="fil0" d="M209 198l5 0 105 0 7 0 -14 20 -7 0 -91 0 -5 0 -91 0 -7 0 -14 -20 7 0 105 0zm5 142l0 -115 -1 0 0 116 1 -1zm0 -156l0 -1 10 -5 7 0 13 -14 0 -20 -13 -41 -17 -17 0 -3 -1 -1 0 0 0 0 0 0 0 0 0 0 0 0 -1 2 -2 -2 0 0 0 0 0 0 0 0 0 0 0 0 -1 1 0 3 -16 17 -14 41 0 20 14 14 7 0 9 5 0 1 1 0 0 0 2 0 1 0 0 0 1 0zm-96 41l88 0 0 116 -27 -27 0 -68 -48 0 -13 -21zm91 115l0 -115 1 0 0 116 -1 -1zm96 -115l-88 0 0 116 27 -27 0 -68 48 0 13 -21z"/>
 </g>
</svg>
