<?xml version="1.0" encoding="UTF-8"?>
<!DOCTYPE svg PUBLIC "-//W3C//DTD SVG 1.1//EN" "http://www.w3.org/Graphics/SVG/1.1/DTD/svg11.dtd">
<!-- Creator: CorelDRAW X6 -->
<svg xmlns="http://www.w3.org/2000/svg" xml:space="preserve" width="43px" height="43px" version="1.1" style="shape-rendering:geometricPrecision; text-rendering:geometricPrecision; image-rendering:optimizeQuality; fill-rule:evenodd; clip-rule:evenodd"
viewBox="0 0 423 423"
 xmlns:xlink="http://www.w3.org/1999/xlink">
 <defs>
  <style type="text/css">
   <![CDATA[
    .fil0 {fill:#EBECEC}
   ]]>
  </style>
 </defs>
 <g id="Слой_x0020_1">
  <metadata id="CorelCorpID_0Corel-Layer"/>
  <path class="fil0" d="M212 8c112,0 203,91 203,204 0,112 -91,203 -203,203 -113,0 -204,-91 -204,-203 0,-113 91,-204 204,-204zm0 17c103,0 186,84 186,187 0,103 -83,186 -186,186 -103,0 -187,-83 -187,-186 0,-103 84,-187 187,-187z"/>
  <path class="fil0" d="M168 116c29,5 52,2 69,20 17,17 99,98 99,98l-50 50 -2 2 -50 50c0,0 -81,-82 -98,-99 -18,-17 -15,-40 -20,-69 -7,-39 13,-59 52,-52zm21 144l71 -71 10 10 -71 71 -10 -10zm24 25l72 -72 9 10 -71 71 -10 -9zm-66 -138c6,-6 16,-6 22,0 6,6 6,16 0,22 -6,6 -16,6 -22,0 -6,-6 -6,-16 0,-22z"/>
 </g>
</svg>
