<?xml version="1.0" encoding="UTF-8"?>
<!DOCTYPE svg PUBLIC "-//W3C//DTD SVG 1.1//EN" "http://www.w3.org/Graphics/SVG/1.1/DTD/svg11.dtd">
<!-- Creator: CorelDRAW X6 -->
<svg xmlns="http://www.w3.org/2000/svg" xml:space="preserve" width="43px" height="43px" version="1.1" style="shape-rendering:geometricPrecision; text-rendering:geometricPrecision; image-rendering:optimizeQuality; fill-rule:evenodd; clip-rule:evenodd"
viewBox="0 0 423 423"
 xmlns:xlink="http://www.w3.org/1999/xlink">
 <defs>
  <style type="text/css">
   <![CDATA[
    .fil0 {fill:#EBECEC}
    .fil1 {fill:#EBECEC;fill-rule:nonzero}
   ]]>
  </style>
 </defs>
 <g id="Слой_x0020_1">
  <metadata id="CorelCorpID_0Corel-Layer"/>
  <path class="fil0" d="M212 8c112,0 203,91 203,204 0,112 -91,203 -203,203 -113,0 -204,-91 -204,-203 0,-113 91,-204 204,-204zm0 17c103,0 186,84 186,187 0,103 -83,186 -186,186 -103,0 -187,-83 -187,-186 0,-103 84,-187 187,-187z"/>
  <path class="fil1" d="M98 283l0 -136 44 0c16,0 27,1 32,3 8,2 14,6 20,13 5,7 7,15 7,26 0,9 -1,16 -4,21 -3,6 -7,10 -12,14 -4,3 -9,5 -14,6 -6,1 -16,2 -28,2l-18 0 0 51 -27 0zm27 -113l0 39 15 0c11,0 18,-1 22,-2 3,-1 6,-4 8,-7 2,-3 3,-6 3,-10 0,-5 -1,-9 -4,-13 -3,-3 -7,-5 -11,-6 -3,0 -10,-1 -20,-1l-13 0zm83 -23l31 0 31 71 27 -71 29 0 -46 104c-5,11 -10,19 -15,25 -6,6 -12,9 -20,9 -9,0 -15,-1 -19,-2l0 -20c3,0 7,0 10,0 6,0 11,-1 14,-3 2,-2 5,-7 8,-15l-50 -98z"/>
 </g>
</svg>
