<?xml version="1.0" encoding="UTF-8"?>
<!DOCTYPE svg PUBLIC "-//W3C//DTD SVG 1.1//EN" "http://www.w3.org/Graphics/SVG/1.1/DTD/svg11.dtd">
<!-- Creator: CorelDRAW X6 -->
<svg xmlns="http://www.w3.org/2000/svg" xml:space="preserve" width="43px" height="43px" version="1.1" style="shape-rendering:geometricPrecision; text-rendering:geometricPrecision; image-rendering:optimizeQuality; fill-rule:evenodd; clip-rule:evenodd"
viewBox="0 0 423 423"
 xmlns:xlink="http://www.w3.org/1999/xlink">
 <defs>
  <style type="text/css">
   <![CDATA[
    .fil0 {fill:#EBECEC}
   ]]>
  </style>
 </defs>
 <g id="Слой_x0020_1">
  <metadata id="CorelCorpID_0Corel-Layer"/>
  <path class="fil0" d="M212 8c112,0 203,91 203,204 0,112 -91,203 -203,203 -113,0 -204,-91 -204,-203 0,-113 91,-204 204,-204zm0 17c103,0 186,84 186,187 0,103 -83,186 -186,186 -103,0 -187,-83 -187,-186 0,-103 84,-187 187,-187z"/>
  <path class="fil0" d="M78 170l238 0 0 115 -238 0 0 -115zm27 -31l234 0 6 0 0 7 0 98 -6 0 0 -98 -234 0 0 -7zm-14 15l234 0 6 0 0 7 0 98 -6 0 0 -98 -234 0 0 -7zm106 43c17,0 31,13 31,30 0,17 -14,31 -31,31 -17,0 -31,-14 -31,-31 0,-17 14,-30 31,-30zm-97 0l36 0 0 14 -36 0 0 -14zm158 0l36 0 0 14 -36 0 0 -14z"/>
 </g>
</svg>
