<?xml version="1.0" encoding="UTF-8"?>
<!DOCTYPE svg PUBLIC "-//W3C//DTD SVG 1.1//EN" "http://www.w3.org/Graphics/SVG/1.1/DTD/svg11.dtd">
<!-- Creator: CorelDRAW X6 -->
<svg xmlns="http://www.w3.org/2000/svg" xml:space="preserve" width="14.3932mm" height="7.0272mm" version="1.1" style="shape-rendering:geometricPrecision; text-rendering:geometricPrecision; image-rendering:optimizeQuality; fill-rule:evenodd; clip-rule:evenodd"
viewBox="0 0 1439 703"
 xmlns:xlink="http://www.w3.org/1999/xlink">
 <defs>
  <style type="text/css">
   <![CDATA[
    .fil1 {fill:#2B2A29}
    .fil2 {fill:#FEFEFE}
    .fil0 {fill:#2B2A29;fill-rule:nonzero}
   ]]>
  </style>
 </defs>
 <g id="Слой_x0020_1">
  <metadata id="CorelCorpID_0Corel-Layer"/>
  <g id="_375711856">
   <path class="fil0" d="M17 587l75 0 0 17 -28 0 0 80 -19 0 0 -80 -28 0 0 -17zm92 0l57 0 0 17 -38 0 0 22 35 0 0 16 -35 0 0 25 38 0 0 17 -57 0 0 -97zm75 0l23 0 15 27 5 8 0 0 4 -8 16 -27 22 0 -30 46 32 51 -23 0 -18 -31 -4 -7 -1 0 -4 7 -19 31 -21 0 32 -51 -29 -46zm105 0l19 0 0 39 39 0 0 -39 20 0 0 97 -20 0 0 -42 -39 0 0 42 -19 0 0 -97zm102 0l20 0 0 50 -1 23 1 0 6 -14 34 -59 24 0 0 97 -20 0 0 -50 0 -23 0 0 -7 14 -34 59 -23 0 0 -97zm108 0l19 0 0 41 1 0 35 -41 23 0 -40 44 42 53 -25 0 -35 -48 -1 0 0 48 -19 0 0 -97zm127 0l22 0 38 97 -22 0 -8 -22 -40 0 -8 22 -21 0 39 -97zm-4 59l28 0 -14 -39 0 0 -14 39zm107 -59l75 0 0 17 -28 0 0 80 -19 0 0 -80 -28 0 0 -17zm136 -1c13,0 24,4 33,13 9,8 14,20 14,36 0,17 -5,29 -14,37 -9,8 -20,13 -33,13 -14,0 -25,-5 -34,-13 -9,-8 -14,-20 -14,-37 0,-16 5,-28 14,-36 9,-9 20,-13 34,-13zm0 14c-2,0 -3,0 -5,0 -2,1 -3,1 -5,2 -4,1 -8,5 -12,10 -3,5 -5,13 -5,23 0,11 2,19 5,24 4,5 8,9 12,10 2,1 3,1 5,2 2,0 3,0 5,0 1,0 2,0 4,0 2,-1 3,-1 5,-2 4,-1 8,-5 12,-10 3,-5 5,-13 5,-24 0,-10 -2,-18 -5,-23 -4,-5 -8,-9 -12,-10 -2,-1 -3,-1 -5,-2 -2,0 -3,0 -4,0zm68 -13l77 0 0 97 -20 0 0 -81 -38 0 0 81 -19 0 0 -97zm112 0l63 0 0 97 -19 0 0 -80 -26 0 0 20c0,18 -1,33 -4,44 -2,11 -11,17 -24,17 -1,0 -2,0 -2,0 -1,0 -2,-1 -3,-1 -1,0 -1,0 -2,0 -1,0 -2,0 -2,0l0 -16c1,0 1,0 1,0 0,0 0,1 1,1 0,0 0,0 0,0 1,0 1,0 1,0 0,0 1,0 1,0 1,0 1,0 2,0 6,0 9,-3 11,-10 1,-7 2,-15 2,-24 0,-1 0,-3 0,-4 0,-2 0,-3 0,-4 0,-2 0,-3 0,-4 0,-2 0,-3 0,-4l0 -32zm87 0l20 0 0 50 -1 23 1 0 7 -14 33 -59 24 0 0 97 -20 0 0 -50 1 -23 -1 0 -6 14 -34 59 -24 0 0 -97zm108 0l32 0c1,0 3,0 6,1 3,0 5,0 8,1 4,1 9,4 12,7 4,3 6,8 6,15 0,5 -1,10 -3,13 -2,3 -5,5 -7,7 -1,0 -2,1 -3,1 -1,1 -2,1 -3,1l0 1c6,0 10,3 14,7 4,4 6,9 6,16 0,1 0,3 0,4 0,2 -1,3 -1,5 -2,5 -6,9 -11,12 -5,4 -14,6 -26,6l-30 0 0 -97zm19 55l0 27 11 0c6,0 10,-2 13,-4 3,-3 5,-6 5,-10 0,-4 -1,-7 -3,-9 -2,-1 -4,-3 -7,-3 -1,-1 -3,-1 -4,-1 -2,0 -3,0 -4,0l-11 0zm0 -40l0 24 10 0c4,0 7,0 9,-2 2,-1 4,-3 5,-4 0,-1 1,-2 1,-3 0,-1 0,-2 0,-3 0,0 0,-1 0,-2 0,-1 -1,-2 -1,-2 -1,-2 -2,-4 -4,-5 -3,-2 -6,-3 -11,-3l-9 0zm103 -15l22 0 38 97 -22 0 -8 -22 -40 0 -8 22 -21 0 39 -97zm-3 59l27 0 -14 -39 0 0 -13 39z"/>
   <polygon class="fil1" points="720,18 421,479 1019,479 "/>
   <path class="fil2" d="M815 326l0 -1 18 -24 -105 0 0 145 36 -48c0,-48 0,-40 0,-72l51 0zm-95 -198l0 0c-3,3 -41,43 -40,83 1,33 25,40 34,41 3,0 10,0 12,0 10,-2 32,-9 33,-41 1,-40 -36,-80 -39,-83l0 0 0 0 0 0zm0 14c16,19 32,44 30,70 -2,21 -15,30 -29,30l-1 0 -1 0c-15,0 -28,-9 -30,-30 -2,-26 15,-51 31,-70zm-133 133l266 0 -10 12 -247 0 -9 -12zm19 26l105 0 0 146 0 -1 -37 -51 0 -69 -50 0 -18 -25z"/>
  </g>
 </g>
</svg>
