<?xml version="1.0" encoding="utf-8"?>
<!-- Generator: Adobe Illustrator 21.0.2, SVG Export Plug-In . SVG Version: 6.00 Build 0)  -->
<svg version="1.1" id="Layer_1" xmlns="http://www.w3.org/2000/svg" xmlns:xlink="http://www.w3.org/1999/xlink" x="0px" y="0px"
	 viewBox="0 0 10.2 10.2" style="enable-background:new 0 0 10.2 10.2;" xml:space="preserve">
<style type="text/css">
	.st0{fill:#434242;}
	.st1{fill:#D9DADA;}
	.st2{fill:#B2B3B3;}
	.st3{fill:#5B5B5B;}
</style>
<g id="Слой_x0020_1">
	<g id="_561029624">
		<path class="st0" d="M5.1,0c2.8,0,5.1,2.3,5.1,5.1c0,2.8-2.3,5.1-5.1,5.1C2.3,10.2,0,7.9,0,5.1C0,2.3,2.3,0,5.1,0z"/>
		<path class="st1" d="M5.1,0.2c2.7,0,4.9,2.2,4.9,4.9C10,7.8,7.8,10,5.1,10c-2.7,0-4.9-2.2-4.9-4.9C0.2,2.4,2.4,0.2,5.1,0.2z"/>
		<path class="st2" d="M5.1,0.7c2.5,0,4.4,2,4.4,4.4s-2,4.4-4.4,4.4s-4.4-2-4.4-4.4S2.6,0.7,5.1,0.7z"/>
		<path class="st1" d="M5.1,0.8c2.4,0,4.3,1.9,4.3,4.3S7.5,9.4,5.1,9.4S0.8,7.5,0.8,5.1S2.7,0.8,5.1,0.8z"/>
		<path class="st3" d="M5.1,2.9L5.1,2.9c0.1,0,0.2,0.1,0.2,0.2v1.8h1.8c0.1,0,0.2,0.1,0.2,0.2l0,0c0,0.1-0.1,0.2-0.2,0.2H5.3v1.8
			c0,0.1-0.1,0.2-0.2,0.2l0,0C5,7.3,4.9,7.2,4.9,7.1V5.3H3.1C3,5.3,2.9,5.2,2.9,5.1l0,0C2.9,5,3,4.9,3.1,4.9h1.8V3.1
			C4.9,3,5,2.9,5.1,2.9z"/>
	</g>
</g>
</svg>
