<?xml version="1.0" encoding="UTF-8"?>
<!DOCTYPE svg PUBLIC "-//W3C//DTD SVG 1.1//EN" "http://www.w3.org/Graphics/SVG/1.1/DTD/svg11.dtd">
<!-- Creator: CorelDRAW X6 -->
<svg xmlns="http://www.w3.org/2000/svg" xml:space="preserve" width="31px" height="31px" version="1.1" style="shape-rendering:geometricPrecision; text-rendering:geometricPrecision; image-rendering:optimizeQuality; fill-rule:evenodd; clip-rule:evenodd"
viewBox="0 0 33866 33866"
 xmlns:xlink="http://www.w3.org/1999/xlink">
 <defs>
  <style type="text/css">
   <![CDATA[
    .fil2 {fill:#FEFEFE}
    .fil0 {fill:#3E88C9}
    .fil1 {fill:#FBFBFB}
   ]]>
  </style>
 </defs>
 <g id="Слой_x0020_1">
  <metadata id="CorelCorpID_0Corel-Layer"/>
  <path class="fil0" d="M16883 0c9391,0 16983,7592 16983,16883 0,9391 -7592,16983 -16983,16983 -9291,0 -16883,-7592 -16883,-16983 0,-9291 7592,-16883 16883,-16883z"/>
  <path class="fil1" d="M16883 1099c8791,0 15784,7093 15784,15784 0,8791 -6993,15784 -15784,15784 -8691,0 -15784,-6993 -15784,-15784 0,-8691 7093,-15784 15784,-15784z"/>
  <path class="fil0" d="M16883 2697c7892,0 14286,6394 14286,14186 0,7892 -6394,14286 -14286,14286 -7792,0 -14186,-6394 -14186,-14286 0,-7792 6394,-14186 14186,-14186z"/>
  <path class="fil2" d="M16883 12288c1299,0 2398,999 2398,2198 0,1299 -1099,2398 -2398,2398 -1299,0 -2298,-1099 -2298,-2398 0,-1199 999,-2198 2298,-2198zm5594 6293l0 0c799,-1099 1299,-2497 1299,-4096 0,-3796 -3097,-6793 -6893,-6793 -3796,0 -6793,2997 -6793,6793 0,3896 2997,6993 6793,6993l0 4695 5594 -7592zm-4995 400l-599 0c-2398,0 -4396,-1998 -4396,-4495 0,-2398 1998,-4296 4396,-4296 2497,0 4495,1898 4495,4296 0,2298 -1698,4196 -3896,4495z"/>
 </g>
</svg>
