<?xml version="1.0" encoding="UTF-8"?>
<!DOCTYPE svg PUBLIC "-//W3C//DTD SVG 1.1//EN" "http://www.w3.org/Graphics/SVG/1.1/DTD/svg11.dtd">
<!-- Creator: CorelDRAW X6 -->
<svg xmlns="http://www.w3.org/2000/svg" xml:space="preserve" width="31px" height="31px" version="1.1" style="shape-rendering:geometricPrecision; text-rendering:geometricPrecision; image-rendering:optimizeQuality; fill-rule:evenodd; clip-rule:evenodd"
viewBox="0 0 339 339"
 xmlns:xlink="http://www.w3.org/1999/xlink">
 <defs>
  <style type="text/css">
   <![CDATA[
    .fil0 {fill:#C5C6C6}
    .fil2 {fill:#EBECEC}
    .fil3 {fill:#2B2A29}
    .fil1 {fill:#FBFBFB}
   ]]>
  </style>
 </defs>
 <g id="Слой_x0020_1">
  <metadata id="CorelCorpID_0Corel-Layer"/>
  <g id="_392702096">
   <path class="fil0" d="M169 0c94,0 170,76 170,169 0,94 -76,170 -170,170 -93,0 -169,-76 -169,-170 0,-93 76,-169 169,-169z"/>
   <path class="fil1" d="M169 11c88,0 158,71 158,158 0,88 -70,158 -158,158 -87,0 -158,-70 -158,-158 0,-87 71,-158 158,-158z"/>
   <path class="fil2" d="M169 27c79,0 143,64 143,142 0,79 -64,143 -143,143 -78,0 -142,-64 -142,-143 0,-78 64,-142 142,-142z"/>
   <path class="fil3" d="M186 78c0,0 2,1 4,3l0 57c-2,2 -5,3 -8,3 -11,0 -24,3 -24,19l0 0 0 0 0 0 0 0 0 0 0 0 0 0 0 0 0 0 0 0 0 0 0 0 0 0 0 0 0 0 0 0 0 0 0 0 0 1 0 0 0 0 0 0 0 0 0 0 0 0 0 1 0 0 0 0 0 0 0 0 0 0 0 0 0 1 0 0 0 0 0 0 0 0 0 1 0 0 0 0 0 0 0 0 0 0 0 1 0 0 0 0 0 0 0 0 0 1 0 0 0 0 0 1 0 0 0 0 0 0 0 0 0 1 0 0 0 0 0 0 0 1 0 0 0 0 0 0 0 1 0 0 0 0 0 0 0 0 0 1 0 0 0 0 0 0 0 1 0 0 0 0 0 0 0 0 0 1 0 0 0 0 0 0 0 1 0 0 0 0 0 0 0 0 0 0 0 1 0 0 0 0 0 0 0 1 0 0 0 0 0 0 0 0 0 0 0 1 0 0 0 0 0 0 0 0 0 0 0 0 0 1 0 0 0 0 0 0 0 0 0 0 0 0 0 0 0 0 0 0 0 1 0 0 0 0 0 0 0 0 0 0 0 0 0 0 0 0 0 0 0 0 0 0 0 0 0 0c0,15 13,19 24,19 3,0 6,1 8,2l0 58c-2,2 -4,2 -4,2 -77,2 -77,-183 0,-182z"/>
  </g>
 </g>
</svg>
